<svg height="484pt" viewBox="0 0 483 484" width="484pt" xmlns="http://www.w3.org/2000/svg"><path d="m475.878906 7.25v131.980469h-91.089844l-53.179687 38.320312v-38.320312h-33.25v-131.980469zm0 0" fill="#fedb41"/><path d="m213.671875 343.230469h39.90625c29.167969 0 52.816406 23.640625 52.820313 52.808593v80.710938h-299.277344v-80.710938c0-29.164062 23.644531-52.808593 52.808594-52.808593h39.671874c32.230469 27.898437 79.921876 28.378906 112.707032 1.128906zm0 0" fill="#00efd1"/><path d="m209.238281 92.769531 64.851563-10.191406c0 22.101563-8.691406 45.320313-27.371094 54.953125-2.042969 1.054688-4.171875 1.933594-6.367188 2.617188 0 0-64.160156 9.863281-105.292968 12.25-5.6875.332031-10.929688.523437-15.507813.523437h-.011719c-5.476562-.003906-9.910156-4.445313-9.910156-9.921875v-34.738281c-.015625-4.957031 1.375-9.816407 4.011719-14.011719h.007813c6.15625-9.863281 18.050781-14.527344 29.273437-11.480469l29.6875 8.019531c11.9375 3.226563 24.417969 3.902344 36.628906 1.980469zm0 0" fill="#4b5d63"/><path d="m213.671875 305.691406c-32.796875 27.957032-81.046875 27.957032-113.84375 0-20.949219-17.585937-33.078125-43.519531-33.148437-70.871094v-54.242187h.289062c10.222656 1.640625 38.160156 4.390625 68.101562-28.007813l-.011718-.171874c41.132812-2.386719 105.292968-12.25 105.292968-12.25 2.195313-.683594 4.324219-1.5625 6.367188-2.617188l.109375.199219v97.089843c-.042969 24.140626-9.507813 47.308594-26.378906 64.578126-2.148438 2.214843-4.414063 4.3125-6.777344 6.292968zm0 0" fill="#f7caa5"/><path d="m213.671875 305.691406v37.539063l-1.363281 1.128906c-32.785156 27.25-80.476563 26.769531-112.707032-1.128906v-37.261719l.226563-.277344c32.796875 27.957032 81.046875 27.957032 113.84375 0zm0 0" fill="#edb288"/><path d="m135.058594 152.398438.011718.171874c-29.941406 32.398438-57.878906 29.648438-68.101562 28.007813h-.289062v-7.25c.011718-32.964844 18.019531-63.292969 46.960937-79.078125-2.636719 4.195312-4.027344 9.054688-4.011719 14.011719v34.738281c0 5.476562 4.433594 9.917969 9.910156 9.921875h.011719c4.578125 0 9.820313-.191406 15.507813-.523437zm0 0" fill="#4b5d63"/><g fill="#083863"><path d="m313.5 476.75v-80.710938c-.070312-33.082031-26.835938-59.90625-59.921875-60.039062h-33.078125v-27.121094c1.707031-1.386718 3.285156-2.921875 4.714844-4.597656 18.171875-18.550781 28.328125-43.496094 28.285156-69.460938v-93.355468c14-9.050782 27.425781-28.492188 27.425781-58.886719.039063-2.035156-.828125-3.980469-2.367187-5.316406-1.535156-1.335938-3.585938-1.917969-5.597656-1.597657l-64.828126 10.191407c-11.238281 1.785156-22.726562 1.164062-33.707031-1.824219l-29.683593-8.019531c-13.535157-3.707031-27.945313 1.464843-36.03125 12.9375-30.367188 17.25-49.152344 49.457031-49.210938 84.378906v61.492187c.027344 28.179688 12.023438 55.023438 33 73.839844v27.339844h-32.570312c-32.980469 0-59.429688 27.0625-59.429688 60.039062v80.710938c0 3.867188 2.753906 7.25 6.621094 7.25h299.277344c3.9375-.109375 7.074218-3.316406 7.101562-7.25zm-207-157.550781c30.546875 19.226562 69.398438 19.285156 100 .152343v20.546876c-29.175781 23.535156-70.808594 23.550781-100 .035156zm13.085938-221.234375c4.503906-7.269532 13.261718-10.703125 21.507812-8.4375l29.6875 8.019531c12.882812 3.503906 26.359375 4.230469 39.546875 2.136719l56.292969-8.84375c-1.730469 15.414062-8.421875 32.898437-23.117188 40.472656-1.53125.792969-3.121094 1.460938-4.761718 2-6.308594.957031-65.753907 9.871094-104.085938 12.097656-5.816406.339844-10.960938.511719-15.179688.511719-1.625 0-2.945312-1.300781-2.976562-2.921875v-34.738281c.011719-3.542969.996094-7.015625 2.847656-10.035157.058594-.085937.179688-.171874.238282-.261718zm-17.085938 12.382812v32.652344c.003906 8.378906 6.140625 15.488281 14.425781 16.71875-13.769531 10.691406-28.425781 15.574219-43.425781 14.582031v-.96875c.105469-24.199219 10.683594-47.171875 29-62.984375zm-29 124.472656v-46.507812c1 .066406 2.601562.113281 3.835938.113281 26.597656 0 47.210937-15 60.882812-29.222656 37.371094-2.421875 91.28125-10.410156 101.28125-11.898437v87.515624c.066406 22.308594-8.636719 43.75-24.230469 59.699219-29.59375 31.128907-78.363281 33.683594-111.046875 5.8125-19.425781-16.21875-30.675781-40.203125-30.722656-65.511719zm226 235.179688h-285v-73.960938c0-25.257812 20.171875-46.039062 45.429688-46.039062h37.117187c34.421875 29 84.726563 29 119.148437 0h37.382813c25.355469.125 45.863281 20.683594 45.921875 46.039062zm0 0"/><path d="m122.160156 246.761719c13.929688-.019531 25.21875-11.3125 25.230469-25.242188 0-3.867187-3.132813-7-7-7s-7 3.132813-7 7c0 6.203125-5.027344 11.230469-11.230469 11.230469s-11.230468-5.027344-11.230468-11.230469c0-3.867187-3.132813-7-7-7-3.867188 0-7 3.132813-7 7 .011718 13.929688 11.300781 25.222657 25.230468 25.242188zm0 0"/><path d="m191.351562 246.761719c13.933594-.015625 25.222657-11.308594 25.238282-25.242188 0-3.867187-3.132813-7-7-7-3.867188 0-7 3.132813-7 7 0 6.207031-5.03125 11.234375-11.234375 11.234375-6.207031 0-11.234375-5.027344-11.234375-11.234375 0-3.867187-3.136719-7-7-7-3.867188 0-7 3.132813-7 7 .011718 13.929688 11.296875 25.222657 25.230468 25.242188zm0 0"/><path d="m475.878906 0h-177.519531c-3.886719.128906-6.945313 3.363281-6.859375 7.25v131.980469c-.023438 1.816406.695312 3.566406 1.988281 4.84375 1.296875 1.277343 3.054688 1.972656 4.871094 1.925781h26.140625v31.550781c.039062 3.878907 3.199219 7.003907 7.082031 7 1.484375-.042969 2.917969-.542969 4.105469-1.4375l51.363281-37.113281h88.828125c1.792969.035156 3.523438-.667969 4.777344-1.953125 1.253906-1.28125 1.921875-3.023437 1.84375-4.816406v-131.980469c0-3.867188-2.753906-7.25-6.621094-7.25zm-7.378906 132h-83.710938c-1.496093.039062-2.945312.542969-4.144531 1.4375l-42.144531 30.441406v-24.648437c.070312-3.890625-3-7.113281-6.890625-7.230469h-26.109375v-118h163zm0 0"/><path d="m329.238281 50h67.53125c3.867188 0 7-3.132812 7-7s-3.132812-7-7-7h-67.53125c-3.863281 0-7 3.132812-7 7s3.136719 7 7 7zm0 0"/><path d="m329.238281 80h117.53125c3.867188 0 7-3.132812 7-7s-3.132812-7-7-7h-117.53125c-3.863281 0-7 3.132812-7 7s3.136719 7 7 7zm0 0"/><path d="m329.238281 110h117.53125c3.867188 0 7-3.132812 7-7s-3.132812-7-7-7h-117.53125c-3.863281 0-7 3.132812-7 7s3.136719 7 7 7zm0 0"/></g></svg>