<?xml version="1.0"?>
<svg xmlns="http://www.w3.org/2000/svg" viewBox="0 0 64 64" width="512" height="512"><title>city-hall-Bank-building</title><g id="Expand"><path d="M32,20a3,3,0,1,0,3,3A3,3,0,0,0,32,20Zm0,4a1,1,0,1,1,1-1A1,1,0,0,1,32,24Z"/><rect x="25" y="24" width="2" height="2"/><rect x="37" y="24" width="2" height="2"/><path d="M61,56H60V20a1,1,0,0,0-1-1H51V17a1,1,0,0,0-1-1H48.943a13.381,13.381,0,0,0-.286-2H50V12H48.008C45.667,6.184,39.385,2,32,2S18.333,6.184,15.992,12H14v2h1.343a13.381,13.381,0,0,0-.286,2H14a1,1,0,0,0-1,1v2H5a1,1,0,0,0-1,1V56H3a1,1,0,0,0-1,1v4a1,1,0,0,0,1,1H61a1,1,0,0,0,1-1V57A1,1,0,0,0,61,56ZM46,56V54h2v2ZM31,47H29v2h2v7H26V46a6.006,6.006,0,0,1,5-5.91Zm2,2h2V47H33V40.09A6.006,6.006,0,0,1,38,46V56H33ZM32,38a8.009,8.009,0,0,0-8,8V56H20V54h2V52H20V38h2V36H20V34H44v2H42v2h2V52H42v2h2v2H40V46A8.009,8.009,0,0,0,32,38ZM18,34v2H16V34Zm0,4V52H16V38Zm0,16v2H16V54Zm28-2V38h2V52Zm0-16V34h2v2ZM14,32V30H50v2Zm-2-4V25.659l20-8.571,20,8.571V28ZM39.2,18H49v4.2ZM32,4c6.228,0,11.578,3.307,13.843,8H18.157C20.422,7.307,25.772,4,32,4ZM17.419,14H46.581a11.4,11.4,0,0,1,.361,2h-12.4l-2.144-.919a1,1,0,0,0-.788,0L29.462,16h-12.4A11.4,11.4,0,0,1,17.419,14ZM24.8,18,15,22.2V18ZM4,58h8v2H4Zm2-2V21h7v2.055l-2.394,1.026A1,1,0,0,0,10,25v4a1,1,0,0,0,1,1h1v3a1,1,0,0,0,1,1h1v2H12v2h2V52H12v2h2v2H6Zm44,4H14V58H50Zm0-4V54h2V52H50V38h2V36H50V34h1a1,1,0,0,0,1-1V30h1a1,1,0,0,0,1-1V25a1,1,0,0,0-.606-.919L51,23.055V21h7V56H50Zm10,4H52V58h8Z"/><rect x="54" y="40" width="2" height="2"/><rect x="54" y="36" width="2" height="2"/><rect x="54" y="32" width="2" height="2"/><rect x="54" y="44" width="2" height="2"/><rect x="54" y="48" width="2" height="2"/><rect x="54" y="52" width="2" height="2"/><rect x="8" y="40" width="2" height="2"/><rect x="8" y="36" width="2" height="2"/><rect x="8" y="32" width="2" height="2"/><rect x="8" y="44" width="2" height="2"/><rect x="8" y="48" width="2" height="2"/><rect x="8" y="52" width="2" height="2"/></g></svg>
