<svg height="682pt" viewBox="-21 -25 682.66669 682" width="682pt" xmlns="http://www.w3.org/2000/svg"><path d="m199.429688 498.539062c32.996093-5.101562 67.492187-8.125 102.507812-8.898437v-21.949219h-111.320312c2.65625 10.6875 5.601562 20.980469 8.8125 30.847656zm0 0"/><path d="m338.0625 525.777344v105.679687c34.28125-9.390625 66.148438-45.050781 89.4375-98.359375-28.859375-4.136718-58.914062-6.617187-89.4375-7.320312zm0 0"/><path d="m301.9375 631.457031v-105.675781c-30.523438.703125-60.574219 3.179688-89.4375 7.316406 23.289062 53.308594 55.15625 88.96875 89.4375 98.359375zm0 0"/><path d="m116.035156 554.625c10.117188 9.253906 20.878906 17.886719 32.285156 25.785156 22.898438 15.859375 47.609376 28.332032 73.519532 37.230469-17.574219-20.753906-33.113282-47.171875-45.898438-78.285156-20.933594 4.191406-41.003906 9.296875-59.90625 15.269531zm0 0"/><path d="m418.15625 617.640625c25.914062-8.898437 50.625-21.371094 73.523438-37.230469 11.40625-7.898437 22.167968-16.53125 32.285156-25.785156-18.90625-5.972656-38.972656-11.085938-59.90625-15.273438-12.785156 31.117188-28.332032 57.535157-45.902344 78.289063zm0 0"/><path d="m153.46875 467.691406h-103.289062c10.484374 20.855469 23.332031 40.300782 38.234374 58.085938 23.359376-8.261719 48.609376-15.207032 75.171876-20.742188-3.746094-11.933594-7.136719-24.390625-10.117188-37.34375zm0 0"/><path d="m449.382812 467.691406h-111.320312v21.949219c35.015625.773437 69.511719 3.796875 102.507812 8.898437 3.210938-9.867187 6.15625-20.160156 8.8125-30.847656zm0 0"/><path d="m476.414062 505.035156c26.5625 5.535156 51.820313 12.480469 75.171876 20.742188 14.902343-17.785156 27.75-37.230469 38.234374-58.085938h-103.289062c-2.980469 12.953125-6.371094 25.410156-10.117188 37.34375zm0 0"/><path d="m464.039062 92.171875c20.941407-4.1875 41.015626-9.300781 59.914063-15.273437-10.367187-9.492188-21.421875-18.328126-33.152344-26.390626-22.617187-15.546874-46.980469-27.796874-72.527343-36.582031 2.851562 3.378907 5.648437 6.910157 8.398437 10.601563 14.246094 19.117187 26.800781 41.914062 37.367187 67.644531zm0 0"/><path d="m338.0625.0898438v105.6562502c30.507812-.703125 60.546875-3.175782 89.394531-7.3125-23.316406-53.246094-55.207031-88.921875-89.394531-98.3437502zm0 0"/><path d="m440.546875 132.988281c-32.988281 5.097657-67.480469 8.121094-102.484375 8.898438v19.75h110.667969c-2.484375-9.765625-5.222657-19.574219-8.183594-28.648438zm0 0"/><path d="m485.953125 161.636719h102.742187c-10.273437-20.023438-22.726562-38.734375-37.101562-55.894531-23.359375 8.265624-48.617188 15.210937-75.179688 20.746093 3.523438 11.21875 6.707032 23.136719 9.539063 35.148438zm0 0"/><path d="m163.585938 126.488281c-26.570313-5.535156-51.828126-12.480469-75.191407-20.75-14.019531 16.734375-26.207031 36.421875-36.332031 55.898438h102.203125c2.773437-11.691407 5.886719-24.214844 9.320313-35.148438zm0 0"/><path d="m213.238281 24.652344c2.777344-3.730469 5.605469-7.296875 8.480469-10.710938-25.289062 8.699219-49.429688 20.785156-71.851562 36.109375-11.976563 8.183594-23.257813 17.171875-33.828126 26.847657 18.902344 5.972656 38.976563 11.085937 59.917969 15.273437 10.542969-25.671875 23.070313-48.425781 37.28125-67.519531zm0 0"/><path d="m301.9375 105.746094v-105.6640628c-34.199219 9.4218748-66.085938 45.0937498-89.398438 98.3515628 28.847657 4.136718 58.890626 6.609375 89.398438 7.3125zm0 0"/><path d="m191.453125 161.636719h110.484375v-19.75c-35.007812-.777344-69.5-3.800781-102.488281-8.902344-2.886719 8.855469-5.558594 19.136719-7.996094 28.652344zm0 0"/><path d="m606.675781 197.765625h-573.351562c-18.402344 0-33.324219 14.914063-33.324219 33.324219v167.148437c0 18.40625 14.921875 33.324219 33.324219 33.324219h573.351562c18.402344 0 33.324219-14.921875 33.324219-33.324219v-167.148437c0-18.410156-14.921875-33.324219-33.324219-33.324219zm-440.082031 174.660156c0 7.808594-5.015625 14.734375-12.4375 17.164063-1.851562.609375-3.75.902344-5.625.902344-5.640625 0-11.089844-2.644532-14.554688-7.367188l-51.871093-70.574219v56.761719c0 9.976562-8.085938 18.066406-18.066407 18.066406-9.976562 0-18.0625-8.089844-18.0625-18.066406v-111.847656c0-7.804688 5.015626-14.730469 12.4375-17.160156 7.410157-2.433594 15.554688.175781 20.179688 6.46875l51.871094 70.574218v-59.875c0-9.976562 8.085937-18.066406 18.058594-18.066406 9.984374 0 18.070312 8.089844 18.070312 18.066406zm83.53125-75.824219c9.976562 0 18.0625 8.085938 18.0625 18.0625 0 9.976563-8.085938 18.0625-18.0625 18.0625h-24.625v21.640626h48.9375c9.976562 0 18.0625 8.085937 18.0625 18.058593 0 9.976563-8.085938 18.0625-18.0625 18.0625h-67.007812c-9.972657 0-18.058594-8.085937-18.058594-18.0625v-114.960937c0-9.972656 8.085937-18.058594 18.058594-18.058594h67.007812c9.976562 0 18.0625 8.085938 18.0625 18.058594 0 9.976562-8.085938 18.066406-18.0625 18.066406h-48.9375v21.066406h24.625zm215.375 58.109376c0 19.734374-15.503906 35.777343-34.566406 35.777343h-28.28125c-5.972656 0-11.597656-1.570312-16.5-4.34375-4.90625 2.773438-10.53125 4.34375-16.503906 4.34375h-28.285157c-19.058593 0-34.566406-16.042969-34.566406-35.777343v-97.8125c0-9.972657 8.089844-18.058594 18.066406-18.058594 9.976563 0 18.0625 8.085937 18.0625 18.058594v97.46875h25.160157v-46.953126c0-9.976562 8.085937-18.066406 18.066406-18.066406 9.976562 0 18.0625 8.089844 18.0625 18.066406v46.953126h25.160156v-97.46875c0-9.972657 8.085938-18.058594 18.0625-18.058594s18.066406 8.085937 18.066406 18.058594v97.8125zm128.523438-9.40625c0 24.914062-19.4375 45.183593-43.328126 45.183593h-42.886718c-9.976563 0-18.0625-8.085937-18.0625-18.0625 0-9.972656 8.085937-18.066406 18.0625-18.066406h42.886718c3.90625 0 7.203126-4.148437 7.203126-9.0625v-6.453125c0-4.914062-3.296876-9.0625-7.203126-9.0625h-24.128906c-23.894531 0-43.332031-20.273438-43.332031-45.191406 0-24.917969 19.4375-45.191406 43.332031-45.191406h34.5625c9.980469 0 18.066406 8.09375 18.066406 18.066406 0 9.976562-8.085937 18.0625-18.066406 18.0625h-34.5625c-3.90625 0-7.207031 4.152344-7.207031 9.0625 0 4.914062 3.300781 9.0625 7.207031 9.0625h24.128906c23.890626 0 43.328126 20.273437 43.328126 45.191406zm0 0"/></svg>