<svg id="Layer_5" enable-background="new 0 0 64 64" height="512" viewBox="0 0 64 64" width="512" xmlns="http://www.w3.org/2000/svg" xmlns:xlink="http://www.w3.org/1999/xlink"><linearGradient id="SVGID_1_" gradientUnits="userSpaceOnUse" x1="32" x2="32" y1="63" y2="1"><stop offset="0" stop-color="#9f2fff"/><stop offset="1" stop-color="#0bb1d3"/></linearGradient><path d="m51 52c-1.654 0-3 1.346-3 3s1.346 3 3 3 3-1.346 3-3-1.346-3-3-3zm0 4c-.552 0-1-.449-1-1s.448-1 1-1 1 .449 1 1-.448 1-1 1zm-36-4c-1.654 0-3 1.346-3 3s1.346 3 3 3 3-1.346 3-3-1.346-3-3-3zm0 4c-.552 0-1-.449-1-1s.448-1 1-1 1 .449 1 1-.448 1-1 1zm-11-1h3c0 4.411 3.589 8 8 8 3.814 0 7.007-2.684 7.804-6.261l1.696 2.261h17l1.696-2.261c.797 3.577 3.99 6.261 7.804 6.261 4.411 0 8-3.589 8-8h1c1.654 0 3-1.346 3-3v-2c0-1.302-.839-2.402-2-2.816v-7.476c0-2.668-1.482-5.067-3.869-6.261l-.181-.09-.496-5.938c-.299-3.6-3.363-6.419-6.975-6.419h-11.479c-3.859 0-7 3.14-7 7v19h-2.184c.112-.314.184-.648.184-1v-12c0-1.654-1.346-3-3-3h-6.196l7.39-11.824c1.182-1.891 1.806-4.068 1.806-6.296 0-2.404-.723-4.639-1.955-6.511l2.662-2.662-1.414-1.414-2.497 2.497c-2.17-2.325-5.252-3.79-8.676-3.79h-.24c-6.551 0-11.88 5.329-11.88 11.88 0 2.229.624 4.405 1.806 6.296l7.39 11.824h-6.196c-1.654 0-3 1.346-3 3v12c0 .352.072.686.184 1h-1.184c-1.654 0-3 1.346-3 3v2c0 1.654 1.346 3 3 3zm3-42.12c0-5.448 4.432-9.88 9.88-9.88h.24c2.873 0 5.455 1.24 7.262 3.204l-1.449 1.449c-1.465-1.624-3.579-2.653-5.933-2.653-4.411 0-8 3.589-8 8s3.589 8 8 8 8-3.589 8-8c0-1.328-.33-2.578-.905-3.681l1.497-1.497c.888 1.482 1.408 3.208 1.408 5.058 0 1.853-.52 3.664-1.501 5.236l-7.816 12.505c-.297.474-1.068.473-1.365 0l-7.817-12.505c-.981-1.572-1.501-3.383-1.501-5.236zm10 3.534 5.587-5.587c.263.675.413 1.406.413 2.173 0 3.309-2.691 6-6 6s-6-2.691-6-6 2.691-6 6-6c1.803 0 3.419.803 4.52 2.066l-4.52 4.52-2.293-2.293-1.414 1.414zm-2 44.586c-3.309 0-6-2.691-6-6s2.691-6 6-6 6 2.691 6 6-2.691 6-6 6zm32-27c0-.551.448-1 1-1h2c.552 0 1 .449 1 1v1h-3c-.552 0-1-.449-1-1zm4-2.816c-.314-.112-.648-.184-1-.184h-2c-1.654 0-3 1.346-3 3 0 .352.072.686.184 1h-8.184v-7c0-.551.448-1 1-1h12c.552 0 1 .449 1 1zm-14 9.816h4v-2h-4v-2h11 3v10h-14zm8.726 8c-1.185 1.043-2.056 2.427-2.463 4h-20.526c-.407-1.573-1.278-2.957-2.463-4h5.726zm-5.226 8h-15l-1.5-2h18zm10.5 4c-3.309 0-6-2.691-6-6s2.691-6 6-6 6 2.691 6 6-2.691 6-6 6zm10-9c0 .551-.448 1-1 1h-1.263c-.407-1.573-1.278-2.957-2.463-4h3.726c.552 0 1 .449 1 1zm-2-12.292v3.292h-1c-.552 0-1-.449-1-1v-2c0-.551.448-1 1-1h.95c.033.232.05.469.05.708zm-26-11.708c0-2.757 2.243-5 5-5h11.479c2.58 0 4.768 2.014 4.982 4.585l.588 7.058 1.187.593c.823.411 1.491 1.026 1.966 1.764h-.202c-1.654 0-3 1.346-3 3v2c0 1.654 1.346 3 3 3h1v2h-6v-10-3-6c0-1.654-1.346-3-3-3h-12c-1.654 0-3 1.346-3 3v19h-2zm-18 5h4v4h-4zm-8 13v-12c0-.551.448-1 1-1h5v6h8v-6h5c.552 0 1 .449 1 1v12c0 .551-.448 1-1 1h-18c-.552 0-1-.449-1-1zm-4 4c0-.551.448-1 1-1h4 1.726c-1.185 1.043-2.056 2.427-2.463 4h-3.263c-.552 0-1-.449-1-1zm6-7h2v2h-2zm10 2h-2v-2h2zm-4 0h-2v-2h2zm-1-22h2v2h-2zm6 2h-2v-2h2z" fill="url(#SVGID_1_)"/></svg>